<svg width="31" height="30" viewBox="0 0 31 30" fill="none" xmlns="http://www.w3.org/2000/svg">
<path d="M26.4602 19.3934C24.772 17.7596 22.7625 16.5502 20.5701 15.8181C22.9183 14.253 24.4609 11.6337 24.4609 8.67188C24.4609 3.89021 20.441 0 15.5 0C10.559 0 6.53906 3.89021 6.53906 8.67188C6.53906 11.6337 8.08174 14.253 10.4299 15.8181C8.23752 16.5502 6.22809 17.7596 4.53987 19.3934C1.6123 22.2265 0 25.9934 0 30H2.42188C2.42188 23.0213 8.28869 17.3438 15.5 17.3438C22.7113 17.3438 28.5781 23.0213 28.5781 30H31C31 25.9934 29.3877 22.2265 26.4602 19.3934ZM15.5 15C11.8944 15 8.96094 12.1613 8.96094 8.67188C8.96094 5.1825 11.8944 2.34375 15.5 2.34375C19.1056 2.34375 22.0391 5.1825 22.0391 8.67188C22.0391 12.1613 19.1056 15 15.5 15Z" fill="#454545"/>
</svg>
